<svg width="523" height="523" viewBox="0 0 523 523" fill="none" xmlns="http://www.w3.org/2000/svg">
<g clip-path="url(#clip0_359_332)">
<path d="M521.291 190.345C496.198 167.533 464.507 153.286 430.791 149.661H428.399C453.567 118.526 472.932 83.1189 485.57 45.1289C485.902 44.0946 485.942 42.9885 485.686 41.9327C485.43 40.877 484.887 39.9126 484.117 39.1459C483.385 38.3516 482.44 37.7844 481.394 37.5116C480.349 37.2389 479.247 37.2721 478.22 37.6074C439.891 49.4808 404.306 68.8599 373.535 94.6169C373.535 93.8476 373.535 93.1639 373.535 92.3946C369.985 58.5697 355.665 26.7798 332.686 1.7094C331.816 0.845052 330.698 0.273517 329.488 0.0743624C328.278 -0.124792 327.036 0.0583445 325.935 0.598272C324.833 1.1406 323.919 2.00015 323.31 3.06637C322.701 4.13259 322.425 5.35671 322.517 6.58127C327.027 52.7617 318.687 99.2905 298.418 141.028C291.835 124.832 280.999 110.716 267.055 100.173C266.08 99.5667 264.955 99.2456 263.807 99.2456C262.66 99.2456 261.535 99.5667 260.56 100.173C259.554 100.782 258.75 101.675 258.248 102.739C257.747 103.803 257.57 104.991 257.74 106.156C260.645 128.036 254.236 176.413 251.587 194.277C236.388 188.262 220.243 184.992 203.902 184.618H201.082C183.022 184.559 165.13 188.079 148.438 194.973C131.746 201.868 116.585 212.002 103.831 224.79L80.1592 248.38L64.9477 263.509L40.2505 288.295C14.4694 314.092 -0.0098412 349.075 -0.00182773 385.549C0.00618574 422.023 14.5008 457 40.2932 482.786C66.0857 508.571 101.063 523.052 137.531 523.044C173.999 523.036 208.971 508.539 234.752 482.743L259.535 458.127L298.247 419.408C317.203 400.718 330.292 376.901 335.908 350.877C341.525 324.854 339.425 297.757 329.866 272.91C347.983 269.833 395.754 262.397 417.46 265.389C418.609 265.52 419.771 265.325 420.814 264.826C421.857 264.328 422.738 263.545 423.357 262.568C424 261.591 424.343 260.447 424.343 259.278C424.343 258.108 424 256.964 423.357 255.987C412.826 242.045 398.749 231.183 382.593 224.534C424.375 204.421 470.859 196.116 517.018 200.516C518.233 200.616 519.45 200.352 520.516 199.759C521.581 199.165 522.445 198.269 523 197.183C523.476 196.009 523.566 194.714 523.259 193.485C522.952 192.257 522.263 191.157 521.291 190.345ZM470.016 52.8213C456.955 87.7164 437.8 120.013 413.444 148.208C407.291 148.208 401.138 148.208 395.07 148.208C387.091 148.797 379.157 149.882 371.313 151.455C372.811 143.6 373.866 135.668 374.475 127.694C374.902 121.54 374.988 115.472 374.475 109.403C402.242 84.3744 434.723 65.1382 470.016 52.8213ZM335.592 24.5303C349.401 45.3327 358.178 69.0649 361.229 93.8476C362.686 104.925 363.03 116.121 362.254 127.267C361.598 136.41 360.284 145.493 358.323 154.447C339.805 158.949 321.961 165.875 305.254 175.046C305.154 169.09 304.438 163.161 303.118 157.353C325.68 116.802 336.898 70.9187 335.592 24.5303ZM312.005 381.203H276.37V325.732H326.362C325.909 345.081 320.996 364.064 312.005 381.203ZM252.954 447.785H209.371V392.741H264.32V436.161L252.954 447.785ZM12.3914 392.741H63.6659V447.785H28.6283C19.0138 430.948 13.4545 412.102 12.3914 392.741ZM27.1755 325.732H63.324V380.69H12.0495C12.7316 361.44 17.9119 342.618 27.1755 325.732ZM86.9958 258.637H130.408V313.68H75.2881V270.09L86.9958 258.637ZM197.407 246.671H142.372V211.029C159.349 202.101 178.148 197.189 197.321 196.67L197.407 246.671ZM197.407 258.637V313.68H142.372V258.637H197.407ZM209.456 258.637H264.491V313.68H209.371L209.456 258.637ZM197.407 325.732V380.69H142.372V325.732H197.407ZM130.408 325.732V380.69H75.2881V325.732H130.408ZM75.3735 392.741H130.408V447.785H75.2881L75.3735 392.741ZM130.408 459.751V511.034C111.049 509.983 92.2029 504.422 75.3735 494.794V460.606L130.408 459.751ZM142.458 459.751H197.407V495.82C180.477 504.947 161.677 510.064 142.458 510.777V459.751ZM142.458 447.785V392.741H197.407V447.785H142.458ZM209.456 380.69V325.732H264.491V380.69H209.456ZM276.455 313.68V258.722H309.356C319.292 275.444 325.148 294.272 326.448 313.68H276.455ZM276.455 246.671V221.798C286.003 228.727 294.396 237.121 301.323 246.671H276.455ZM264.491 246.671H209.371V196.926C228.805 198.213 247.661 204.07 264.406 214.021L264.491 246.671ZM112.377 233.252C117.917 227.912 123.923 223.078 130.323 218.807V247.098H99.1307L112.377 233.252ZM48.8817 296.757L63.4095 282.227V313.68H34.6958C38.9171 307.657 43.6336 301.996 48.7963 296.757H48.8817ZM36.4904 459.751H63.324V486.504C58.1721 482.812 53.3149 478.726 48.7963 474.281C44.3494 469.741 40.2367 464.885 36.4904 459.751ZM226.292 474.281C221.024 479.454 215.304 484.145 209.2 488.298V459.751H240.563L226.292 474.281ZM289.786 410.776L276.37 423.938V392.741H304.656C300.276 399.206 295.298 405.244 289.786 410.776ZM324.482 261.543C311.341 234.621 289.724 212.76 262.953 199.319C267.188 172.901 269.7 146.234 270.473 119.489C280.617 130.235 287.801 143.428 291.325 157.78C293.394 166.828 294 176.148 293.119 185.388C293.02 186.518 293.239 187.654 293.753 188.667C294.266 189.679 295.054 190.527 296.025 191.114C296.99 191.703 298.099 192.015 299.23 192.015C300.36 192.015 301.469 191.703 302.434 191.114C318.907 180.757 336.778 172.812 355.503 167.524C350.15 186.185 342.363 204.059 332.344 220.687C331.793 221.65 331.516 222.746 331.544 223.856C331.572 224.965 331.903 226.046 332.502 226.98C333.102 227.914 333.945 228.666 334.942 229.154C335.939 229.642 337.05 229.847 338.155 229.747C347.364 228.832 356.661 229.438 365.673 231.542C379.965 235.347 393.052 242.731 403.701 252.996C377.133 254.06 350.666 256.916 324.482 261.543ZM365.673 219.576C359.739 218.331 353.703 217.644 347.641 217.525C356.761 200.793 363.765 182.993 368.493 164.533C377.493 162.503 386.635 161.16 395.839 160.515C406.986 159.735 418.183 160.107 429.253 161.627C454.01 164.657 477.716 173.438 498.474 187.268C452.126 186.076 406.295 197.226 365.673 219.576Z" fill="black"/>
</g>
<defs>
<clipPath id="clip0_359_332">
<rect width="523" height="523" fill="white"/>
</clipPath>
</defs>
</svg>
