<svg width="800" height="800" viewBox="0 0 800 800" fill="none" xmlns="http://www.w3.org/2000/svg">
    <clipPath id="circleClip">
        <circle cx="400" cy="400" r="400"/>
    </clipPath>
    <rect width="800" height="800" rx="400" fill="url(#paint0_linear_380_322)"/>
    <g clip-path="url(#circleClip)">
        <path d="M663.521 417.679C661.605 415.661 615.579 368.612 528.997 357.22L525.522 356.811C583.277 288.357 609.293 205.446 610.443 201.717C610.921 200.18 610.974 198.543 610.597 196.978C610.219 195.414 609.425 193.981 608.298 192.831C607.171 191.681 605.754 190.858 604.197 190.448C602.64 190.039 601.001 190.058 599.454 190.504C595.62 191.602 510.521 216.532 444.077 275.101L443.693 271.959C432.296 185.395 385.248 139.393 383.331 137.478C382.014 136.223 380.345 135.4 378.548 135.118C376.75 134.836 374.91 135.109 373.271 135.9C371.633 136.691 370.275 137.963 369.378 139.545C368.482 141.128 368.089 142.946 368.254 144.757C374.796 214.514 361.788 286.084 332.476 344.5C322.635 320.44 306.499 299.469 285.761 283.785C284.337 282.802 282.657 282.255 280.927 282.21C279.196 282.165 277.491 282.623 276.017 283.531C274.543 284.438 273.365 285.754 272.627 287.318C271.888 288.883 271.622 290.628 271.859 292.342C276.229 324.807 266.748 396.453 262.761 423.171C240.102 414.235 216.021 409.442 191.666 409.02H190.976H190.541H187.526C160.712 408.932 134.146 414.154 109.363 424.387C84.58 434.62 62.0715 449.659 43.1376 468.637L7.99885 503.834L0 511.829V800H289.62L296.929 792.72L332.221 757.574C360.111 729.667 379.324 694.289 387.54 655.709C395.757 617.129 392.627 576.997 378.527 540.156C405.667 535.584 476.43 524.6 508.579 528.917C510.291 529.148 512.034 528.877 513.595 528.137C515.156 527.396 516.468 526.219 517.373 524.747C518.277 523.275 518.734 521.573 518.688 519.846C518.642 518.12 518.095 516.444 517.114 515.022C501.425 494.279 480.444 478.134 456.369 468.279C514.865 439.084 586.472 426.134 656.238 432.673C658.06 432.823 659.885 432.415 661.47 431.502C663.054 430.589 664.322 429.216 665.106 427.564C665.862 425.947 666.115 424.141 665.833 422.378C665.55 420.616 664.745 418.979 663.521 417.679V417.679ZM587.34 213.339C576.045 242.892 548.624 305.292 503.263 355.023C494.138 354.691 485.002 354.844 475.893 355.483C464.139 356.224 452.445 357.717 440.882 359.953C443.086 348.399 444.58 336.722 445.354 324.985C445.968 315.892 446.096 306.774 445.814 297.757C493.629 251.525 557.287 224.373 587.34 213.416V213.339ZM387.574 171.347C408.177 202.218 421.301 237.461 425.907 274.283C428.06 290.735 428.573 307.36 427.44 323.913C426.525 337.465 424.594 350.93 421.665 364.193C394.131 370.888 367.604 381.194 342.775 394.844C342.641 386.02 341.674 377.229 339.887 368.587C372.215 312.112 389.133 241.717 387.574 171.347ZM281.698 700.333H199.92V618.597H281.698V700.333ZM100.382 618.597H182.159V700.333H100.382V618.597ZM100.382 518.981H182.159V600.717H100.382V518.981ZM200.048 600.717V518.981H281.825V600.717H200.048ZM299.714 518.981H348.78C363.38 543.902 371.931 571.896 373.748 600.717H299.637L299.714 518.981ZM299.714 501.101V464.116C313.777 474.697 326.285 487.199 336.872 501.254L299.714 501.101ZM281.825 501.101H200.048V427.028C228.888 428.84 256.899 437.397 281.825 452.008V501.101ZM182.159 501.101H100.382V448.203C125.63 434.873 153.615 427.548 182.159 426.798V501.101ZM55.7619 481.408C63.9728 473.186 72.9397 465.754 82.544 459.211V501.28H35.7776L55.7619 481.408ZM0.817774 536.248L17.8888 519.083H82.544V600.819H0.792218L0.817774 536.248ZM0.817774 618.622H82.5951V700.359H0.792218L0.817774 618.622ZM0.817774 799.974V718.238H82.5951V799.974H0.817774ZM100.484 799.974V718.238H182.261V799.974H100.484ZM264.601 799.974H199.971V718.238H281.749V782.81L264.601 799.974ZM319.545 745.058L299.561 764.93V718.187H341.676C335.113 727.781 327.67 736.743 319.443 744.956L319.545 745.058ZM352.614 700.435H299.561V618.699H373.927C373.163 647.194 365.834 675.129 352.512 700.333L352.614 700.435ZM488.824 510.297C448.626 510.603 391.049 520.028 371.269 523.476C351.632 483.491 319.498 450.988 279.73 430.885C282.515 412.596 290.949 353.414 290.846 312.367C305.882 328.381 316.532 347.999 321.768 369.327C324.92 382.707 325.836 396.517 324.477 410.195C324.323 411.877 324.648 413.567 325.415 415.072C326.182 416.576 327.36 417.833 328.812 418.696C330.263 419.559 331.93 419.994 333.619 419.949C335.308 419.905 336.949 419.384 338.354 418.446C362.735 403.257 389.162 391.628 416.835 383.912C408.718 411.638 397.072 438.207 382.181 462.966C381.346 464.385 380.919 466.006 380.947 467.651C380.975 469.297 381.457 470.903 382.34 472.292C383.222 473.681 384.471 474.8 385.95 475.525C387.428 476.25 389.077 476.554 390.717 476.402C404.401 475.028 418.219 475.934 431.606 479.084C453.006 484.369 472.679 495.084 488.722 510.194L488.824 510.297ZM432.245 460.974C423.441 459.128 414.482 458.127 405.488 457.985C419.034 433.104 429.478 406.658 436.589 379.238C449.91 376.253 463.445 374.315 477.069 373.44C493.604 372.276 510.215 372.79 526.646 374.972C563.487 379.575 598.749 392.693 629.635 413.286C559.229 411.753 488.799 428.637 432.245 460.974Z" fill="white"/>
    </g>
    <defs>

        <linearGradient id="paint0_linear_380_322" x1="237.5" y1="865.5" x2="613.5" y2="-1.32997e-05" gradientUnits="userSpaceOnUse">
            <stop stop-color="#FF7F84"/>
            <stop offset="1" stop-color="#FF7900"/>
        </linearGradient>
    </defs>
</svg>
